<?xml version="1.0" encoding="iso-8859-1"?>
<!-- Uploaded to: SVG Repo, www.svgrepo.com, Generator: SVG Repo Mixer Tools -->
<!DOCTYPE svg PUBLIC "-//W3C//DTD SVG 1.1//EN" "http://www.w3.org/Graphics/SVG/1.1/DTD/svg11.dtd">
<svg fill="#000000" height="800px" width="800px" version="1.1" id="Capa_1" xmlns="http://www.w3.org/2000/svg" xmlns:xlink="http://www.w3.org/1999/xlink" 
	 viewBox="0 0 482.139 482.139" xml:space="preserve">
<g>
	<path d="M302.614,0H108.966C80.677,0,57.651,23.041,57.651,51.315v379.509c0,28.305,23.026,51.315,51.315,51.315h264.222
		c28.275,0,51.3-23.01,51.3-51.315V121.449L302.614,0z M373.188,450.713H108.966c-10.953,0-19.874-8.92-19.874-19.889V51.315
		c0-10.938,8.92-19.858,19.874-19.858l181.891-0.189v67.234c0,19.637,15.934,35.586,35.586,35.586l65.863-0.189l0.741,296.925
		C393.046,441.793,384.141,450.713,373.188,450.713z"/>
	<path d="M188.816,198.422c-17.997,0-30.771,1.166-39.874,2.711v128.715h29.227v-46.65c2.712,0.395,6.194,0.583,10.064,0.583
		c17.423,0,32.324-4.256,42.395-13.743c7.738-7.359,11.994-18.188,11.994-30.969c0-12.766-5.611-23.609-13.933-30.197
		C219.983,201.904,207.011,198.422,188.816,198.422z M188.044,261.133c-4.264,0-7.361-0.19-9.875-0.773v-38.518
		c2.128-0.582,6.194-1.167,12.191-1.167c14.712,0,23.035,7.173,23.035,19.165C213.395,253.205,203.717,261.133,188.044,261.133z"/>
	<path d="M312.173,252.416c-16.833-6.383-24.193-10.054-24.193-18.375c0-6.778,6.194-12.576,18.968-12.576
		c12.773,0,22.064,3.671,27.297,6.178l6.581-23.799c-7.747-3.484-18.582-6.588-33.294-6.588c-30.773,0-49.354,17.037-49.354,39.29
		c0,18.976,14.128,30.97,35.807,38.518c15.674,5.628,21.868,10.261,21.868,18.393c0,8.51-7.164,14.138-20.71,14.138
		c-12.585,0-24.775-4.067-32.711-8.133l-6.003,24.381c7.359,4.066,22.071,7.943,36.973,7.943c35.807,0,52.647-18.582,52.647-40.456
		C346.049,272.936,335.205,260.942,312.173,252.416z"/>
</g>
</svg>